<svg width="11" height="11" viewBox="0 0 11 11" fill="none" xmlns="http://www.w3.org/2000/svg">
<path d="M6.14446 0.217271L10.8058 4.99722C10.8764 5.06964 10.9265 5.1481 10.9562 5.23259C10.9854 5.31708 11 5.40761 11 5.50418C11 5.60074 10.9854 5.69127 10.9562 5.77577C10.9265 5.86026 10.8764 5.93872 10.8058 6.01114L6.14446 10.7911C6.01498 10.9239 5.85325 10.9934 5.65926 10.9997C5.4648 11.0055 5.29695 10.9359 5.1557 10.7911C5.01445 10.6583 4.94076 10.4925 4.93464 10.2935C4.92899 10.0941 4.99679 9.92201 5.13804 9.77716L8.59872 6.22841L0.70626 6.22841C0.506152 6.22841 0.338299 6.15913 0.202697 6.02056C0.0675659 5.8815 0 5.70938 0 5.50418C0 5.29898 0.0675659 5.12709 0.202697 4.98852C0.338299 4.84947 0.506152 4.77994 0.70626 4.77994L8.59872 4.77994L5.13804 1.2312C5.00856 1.09842 4.94076 0.929434 4.93464 0.724235C4.92899 0.519034 4.99679 0.350047 5.13804 0.217271C5.26752 0.0724239 5.43232 0 5.63242 0C5.83253 0 6.00321 0.0724239 6.14446 0.217271Z" fill="#39899B"/>
</svg>
