<svg width="68" height="64" viewBox="0 0 68 64" fill="none" xmlns="http://www.w3.org/2000/svg">
<path d="M8.07075 13.668L27.541 27.4335C31.4048 30.1652 36.5952 30.1652 40.459 27.4335L59.9292 13.668M3.29817 42.5042C1.56728 35.6062 1.56728 28.3938 3.29817 21.4958C5.56395 12.4661 12.7992 5.48446 21.9766 3.47206L23.5054 3.13683C30.418 1.62106 37.582 1.62106 44.4946 3.13683L46.0234 3.47206C55.2008 5.48446 62.4361 12.4661 64.7018 21.4959C66.4327 28.3938 66.4327 35.6062 64.7018 42.5042C62.4361 51.5339 55.2008 58.5155 46.0234 60.5279L44.4946 60.8632C37.582 62.3789 30.418 62.3789 23.5054 60.8632L21.9766 60.5279C12.7992 58.5155 5.56395 51.5339 3.29817 42.5042Z" stroke="white" stroke-width="4" stroke-linecap="round"/>
</svg>
