<svg width="21" height="21" viewBox="0 0 21 21" fill="none" xmlns="http://www.w3.org/2000/svg">
<path d="M1.33327 12.38L2.30684 12.1516L1.33327 12.38ZM1.33327 6.61978L2.30684 6.84815L1.33327 6.61978ZM17.6665 6.61978L18.6401 6.39141L17.6665 6.61978ZM17.6665 12.38L18.6401 12.6084L17.6665 12.38ZM12.38 17.6665L12.1516 16.6929L12.38 17.6665ZM6.61978 17.6665L6.39141 18.6401L6.61978 17.6665ZM6.61978 1.33327L6.39141 0.359694L6.61978 1.33327ZM12.38 1.33327L12.6084 0.359693L12.38 1.33327ZM19.2929 20.7071C19.6834 21.0976 20.3166 21.0976 20.7071 20.7071C21.0976 20.3166 21.0976 19.6834 20.7071 19.2929L19.2929 20.7071ZM2.30684 12.1516C1.89772 10.4075 1.89772 8.5923 2.30684 6.84815L0.359694 6.39141C-0.119898 8.43598 -0.119898 10.5638 0.359694 12.6084L2.30684 12.1516ZM16.6929 6.84815C17.1021 8.59231 17.1021 10.4075 16.6929 12.1516L18.6401 12.6084C19.1197 10.5638 19.1197 8.43598 18.6401 6.39141L16.6929 6.84815ZM12.1516 16.6929C10.4075 17.1021 8.59231 17.1021 6.84815 16.6929L6.39141 18.6401C8.43598 19.1197 10.5638 19.1197 12.6084 18.6401L12.1516 16.6929ZM6.84815 2.30684C8.5923 1.89772 10.4075 1.89772 12.1516 2.30684L12.6084 0.359693C10.5638 -0.119898 8.43598 -0.119898 6.39141 0.359694L6.84815 2.30684ZM6.84815 16.6929C4.59482 16.1644 2.8354 14.405 2.30684 12.1516L0.359694 12.6084C1.06172 15.6012 3.39856 17.9381 6.39141 18.6401L6.84815 16.6929ZM12.6084 18.6401C15.6012 17.9381 17.9381 15.6012 18.6401 12.6084L16.6929 12.1516C16.1644 14.405 14.405 16.1644 12.1516 16.6929L12.6084 18.6401ZM12.1516 2.30684C14.405 2.8354 16.1644 4.59482 16.6929 6.84815L18.6401 6.39141C17.9381 3.39856 15.6012 1.06172 12.6084 0.359693L12.1516 2.30684ZM6.39141 0.359694C3.39856 1.06172 1.06172 3.39856 0.359694 6.39141L2.30684 6.84815C2.8354 4.59482 4.59482 2.8354 6.84815 2.30684L6.39141 0.359694ZM15.4244 16.8386L19.2929 20.7071L20.7071 19.2929L16.8386 15.4244L15.4244 16.8386Z" fill="#303030"/>
</svg>
