<svg width="66" height="60" viewBox="0 0 66 60" fill="none" xmlns="http://www.w3.org/2000/svg">
<path d="M64.3198 1.16768C63.6435 0.592304 62.8245 0.211661 61.9499 0.0662159C61.0753 -0.0792297 60.1778 0.0159568 59.3528 0.341658L3.10051 22.522C2.11386 22.8994 1.27812 23.5919 0.721999 24.493C0.165873 25.3941 -0.0798064 26.4537 0.0227896 27.5087C0.114322 28.5633 0.543916 29.5597 1.24715 30.3485C1.95039 31.1373 2.88936 31.6759 3.92327 31.8836L18.2149 34.7288V52.6566C18.2144 53.6265 18.5008 54.5746 19.038 55.3808C19.5751 56.1869 20.3386 56.8147 21.2317 57.1845C21.8227 57.4233 22.4534 57.5478 23.0905 57.5516C23.7308 57.5539 24.3652 57.4279 24.9565 57.181C25.5477 56.9341 26.084 56.5712 26.5339 56.1137L34.4567 48.19L46.4324 58.7753C47.3166 59.5582 48.4532 59.9929 49.6321 59.9991C50.1504 60.0098 50.6665 59.9269 51.1557 59.7543C51.9598 59.4989 52.6836 59.0371 53.2555 58.4147C53.8273 57.7923 54.2274 57.0308 54.4162 56.2055L65.8739 5.97087C66.0742 5.10405 66.0353 4.19882 65.7615 3.35252C65.4877 2.50622 64.9892 1.75087 64.3198 1.16768ZM20.0737 30.1092L4.89839 27.0804L47.438 10.2846L20.0737 30.1092ZM23.0905 52.6566V38.1553L30.7696 44.947L23.0905 52.6566ZM49.6625 55.1041L24.5532 32.9238L60.7241 6.70512L49.6625 55.1041Z" fill="white"/>
</svg>
