<svg width="25" height="25" viewBox="0 0 25 25" fill="none" xmlns="http://www.w3.org/2000/svg">
<path d="M24.475 21.9513C24.6414 22.1172 24.7734 22.3143 24.8635 22.5314C24.9536 22.7484 25 22.9811 25 23.2161C25 23.4511 24.9536 23.6838 24.8635 23.9009C24.7734 24.1179 24.6414 24.315 24.475 24.4809C24.1381 24.8135 23.6838 25 23.2105 25C22.7372 25 22.2829 24.8135 21.9461 24.4809L12.5 15.032L3.05391 24.4809C2.71705 24.8135 2.26278 25 1.78947 25C1.31616 25 0.861892 24.8135 0.525034 24.4809C0.358616 24.315 0.226573 24.1179 0.136476 23.9009C0.0463787 23.6838 0 23.4511 0 23.2161C0 22.9811 0.0463787 22.7484 0.136476 22.5314C0.226573 22.3143 0.358616 22.1172 0.525034 21.9513L9.97112 12.5024L0.525034 3.05353C0.189684 2.71808 0.00128644 2.26311 0.00128644 1.78871C0.00128644 1.55382 0.0475394 1.32122 0.137404 1.1042C0.227269 0.887186 0.358986 0.69 0.525034 0.523902C0.691082 0.357805 0.88821 0.226049 1.10516 0.136158C1.32212 0.0462667 1.55464 0 1.78947 0C2.26373 0 2.71856 0.188453 3.05391 0.523902L12.5 9.97279L21.9461 0.523902C22.2814 0.188453 22.7363 0 23.2105 0C23.6848 0 24.1396 0.188453 24.475 0.523902C24.8103 0.859351 24.9987 1.31432 24.9987 1.78871C24.9987 2.26311 24.8103 2.71808 24.475 3.05353L15.0289 12.5024L24.475 21.9513Z" fill="#858585" fill-opacity="0.47"/>
</svg>
