<svg width="28" height="28" viewBox="0 0 28 28" fill="none" xmlns="http://www.w3.org/2000/svg">
<path d="M27.5899 25.5948C27.8526 25.8609 28 26.2204 28 26.5951C28 26.9698 27.8526 27.3293 27.5899 27.5955C27.3224 27.8549 26.9649 28 26.5929 28C26.2209 28 25.8634 27.8549 25.596 27.5955L14 15.9422L2.40402 27.5955C2.13658 27.8549 1.77911 28 1.40708 28C1.03506 28 0.67759 27.8549 0.410145 27.5955C0.147398 27.3293 0 26.9698 0 26.5951C0 26.2204 0.147398 25.8609 0.410145 25.5948L12.0236 13.9591L0.410145 2.32341C0.187022 2.05062 0.0729973 1.7043 0.0902497 1.35182C0.107502 0.999342 0.254798 0.665904 0.503487 0.416364C0.752175 0.166824 1.08448 0.0190241 1.43575 0.00171267C1.78703 -0.0155988 2.13216 0.098816 2.40402 0.322703L14 11.9759L25.596 0.322703C25.8678 0.098816 26.213 -0.0155988 26.5642 0.00171267C26.9155 0.0190241 27.2478 0.166824 27.4965 0.416364C27.7452 0.665904 27.8925 0.999342 27.9098 1.35182C27.927 1.7043 27.813 2.05062 27.5899 2.32341L15.9764 13.9591L27.5899 25.5948Z" fill="black"/>
</svg>
